<?xml version="1.0" encoding="UTF-8" standalone="no"?>
<svg width="30px" height="30px" viewBox="0 0 30 30" version="1.1" xmlns="http://www.w3.org/2000/svg" xmlns:xlink="http://www.w3.org/1999/xlink" xmlns:sketch="http://www.bohemiancoding.com/sketch/ns">
    <!-- Generator: Sketch 3.1.1 (8761) - http://www.bohemiancoding.com/sketch -->
    <title>Add button</title>
    <desc>Created with Sketch.</desc>
    <defs></defs>
    <g id="Page-1" stroke="none" stroke-width="1" fill="none" fill-rule="evenodd" sketch:type="MSPage">
        <g id="Add-button" sketch:type="MSLayerGroup" transform="translate(1.000000, 1.000000)">
            <path d="M14,28 C21.7319865,28 28,21.7319865 28,14 C28,6.2680135 21.7319865,0 14,0 C6.2680135,0 0,6.2680135 0,14 C0,21.7319865 6.2680135,28 14,28 Z" id="Oval-1" stroke="#FFFFFF" fill="#EA3835" sketch:type="MSShapeGroup"></path>
            <path d="M13.3461538,13.3461538 L13.3461538,8.00748397 C13.3461538,7.44892021 13.7903151,7 14.3382158,7 L14.6617842,7 C15.2088999,7 15.6538462,7.45106594 15.6538462,8.00748397 L15.6538462,13.3461538 L20.992516,13.3461538 C21.5510798,13.3461538 22,13.7903151 22,14.3382158 L22,14.6617842 C22,15.2088999 21.5489341,15.6538462 20.992516,15.6538462 L15.6538462,15.6538462 L15.6538462,20.992516 C15.6538462,21.5510798 15.2096849,22 14.6617842,22 L14.3382158,22 C13.7911001,22 13.3461538,21.5489341 13.3461538,20.992516 L13.3461538,15.6538462 L8.00748397,15.6538462 C7.44892021,15.6538462 7,15.2096849 7,14.6617842 L7,14.3382158 C7,13.7911001 7.45106594,13.3461538 8.00748397,13.3461538 L13.3461538,13.3461538 Z" id="Rectangle-2" fill="#FFFFFF" sketch:type="MSShapeGroup"></path>
        </g>
    </g>
</svg>